<?xml version="1.0" encoding="utf-8"?>
<!-- Generator: Adobe Illustrator 26.0.1, SVG Export Plug-In . SVG Version: 6.00 Build 0)  -->
<svg version="1.1" id="Layer_1" xmlns="http://www.w3.org/2000/svg" xmlns:xlink="http://www.w3.org/1999/xlink" x="0px" y="0px"
	 viewBox="0 0 12 17" style="enable-background:new 0 0 12 17;" xml:space="preserve">
<style type="text/css">
	.st0{fill:#6B7280;}
</style>
<path class="st0" d="M5.9,16.5c-0.1,0-0.3-0.1-0.4-0.1c-0.1-0.1-0.1-0.2-0.1-0.4c0-2.2-1.2-3.8-2.4-5.4c-1.1-1.5-2.3-3-2.3-4.9
	C0.7,4.3,1.3,3,2.2,2c1-1,2.3-1.5,3.7-1.5c1.4,0,2.7,0.6,3.7,1.5c1,1,1.5,2.3,1.5,3.7c0,1.9-1.2,3.4-2.3,4.9
	c-1.2,1.6-2.4,3.2-2.4,5.4c0,0.1-0.1,0.3-0.1,0.4C6.2,16.4,6.1,16.5,5.9,16.5z M5.9,1.5c-1.1,0-2.2,0.4-3,1.2s-1.2,1.9-1.2,3
	c0,1.5,1,2.9,2.1,4.3c0.9,1,1.6,2.2,2.1,3.5c0.6-1.2,1.3-2.4,2.1-3.5c1.1-1.4,2.1-2.7,2.1-4.3c0-1.1-0.4-2.2-1.2-3
	C8.1,1.9,7.1,1.5,5.9,1.5z"/>
<path class="st0" d="M5.9,8C5.5,8,5.1,7.9,4.8,7.7C4.4,7.4,4.1,7.1,4,6.7C3.8,6.3,3.8,5.9,3.9,5.5C4,5.1,4.2,4.7,4.4,4.4
	c0.3-0.3,0.7-0.5,1.1-0.6c0.4-0.1,0.8,0,1.2,0.1c0.4,0.2,0.7,0.4,0.9,0.8C7.9,5.1,8,5.5,8,5.9C8,6.5,7.8,7,7.4,7.4
	C7,7.8,6.5,8,5.9,8z M5.9,4.8C5.7,4.8,5.5,4.9,5.3,5C5.1,5.1,5,5.3,4.9,5.5C4.8,5.7,4.8,5.9,4.8,6.1c0,0.2,0.1,0.4,0.3,0.6
	C5.3,6.8,5.5,6.9,5.7,7c0.2,0,0.4,0,0.6-0.1c0.2-0.1,0.4-0.2,0.5-0.4C7,6.3,7,6.1,7,5.9c0-0.3-0.1-0.6-0.3-0.8
	C6.5,4.9,6.2,4.8,5.9,4.8z"/>
</svg>
